# xmcd
#
# Track frame offsets:
#	150
#	21070
#	38150
#	55926
#	73191
#	83728
#	100282
#	118385
#	134626
#	154295
#	165970
#
# Disc length: 2367 seconds
#
# Revision: 1
# Processed by: cddbd v1.5.2PL0 Copyright (c) Steve Scherf et al.
# Submitted via: audiograbber 1.83.01
#
DISCID=95093d0b
DTITLE=Dale and The Dragons - Journey of a Lifetime
DYEAR=2005
DGENRE=Blues
TTITLE0=I'm in the Book
TTITLE1=Streets of Satan
TTITLE2=It just doesnt ever work that way
TTITLE3=Laura (doesnt liver here anymore)
TTITLE4=We love our school
TTITLE5=Old Friends
TTITLE6=All Night Long
TTITLE7=Man of his world
TTITLE8=the mosquito
TTITLE9=angel on a saturday night
TTITLE10=wave of the past
EXTD=
EXTT0=
EXTT1=
EXTT2=
EXTT3=
EXTT4=
EXTT5=
EXTT6=
EXTT7=
EXTT8=
EXTT9=
EXTT10=
PLAYORDER=
